<svg id="Group_13" data-name="Group 13" xmlns="http://www.w3.org/2000/svg" width="23.437" height="22.758" viewBox="0 0 23.437 22.758">
  <g id="Photo_Surface" data-name="Photo Surface" transform="translate(0 0)">
    <rect id="Outline_no_shadow" data-name="Outline no shadow" width="23.437" height="22.758" rx="4" transform="translate(0 0)" fill="#001e36"/>
  </g>
  <path id="Path_9" data-name="Path 9" d="M57.993,82.9V72.2a.1.1,0,0,1,.11-.11c.8-.021,1.739-.087,2.966-.087a4.465,4.465,0,0,1,3.186.952,3.206,3.206,0,0,1,1.015,2.407A2.987,2.987,0,0,1,64.011,78a5.473,5.473,0,0,1-3.166.865l-.885.016v4a.111.111,0,0,1-.126.126H58.118C58.035,83.014,57.993,82.977,57.993,82.9Zm1.967-9.368v3.872s.448-.018.983-.018a2.88,2.88,0,0,0,1.707-.464,1.739,1.739,0,0,0,.653-1.52,1.8,1.8,0,0,0-.574-1.432,2.43,2.43,0,0,0-1.66-.5c-.178,0-.354,0-.527.008s-.315.008-.425.008S59.947,73.487,59.959,73.536Zm11.8,6.921a2.222,2.222,0,0,1-.787,1.77v-.006c-.047.046-.1.089-.148.132a3.378,3.378,0,0,1-2.2.661,4.467,4.467,0,0,1-2.262-.509.148.148,0,0,1-.1-.16V80.862a.1.1,0,0,1,.039-.088.053.053,0,0,1,.071.008,3.58,3.58,0,0,0,2.187.765,1.5,1.5,0,0,0,.842-.2.6.6,0,0,0,.3-.518.759.759,0,0,0-.236-.565,2.941,2.941,0,0,0-.928-.5,4.511,4.511,0,0,1-1.754-1.06,2.014,2.014,0,0,1-.531-1.394,2.246,2.246,0,0,1,.771-1.692,3.031,3.031,0,0,1,2.108-.67A4.425,4.425,0,0,1,71.1,75.3c.052.031.079.1.079.207v1.323c0,.128-.047.159-.142.1a3.4,3.4,0,0,0-1.841-.558,1.294,1.294,0,0,0-.81.207.617.617,0,0,0-.26.492.678.678,0,0,0,.22.5,3.148,3.148,0,0,0,.928.5,5.267,5.267,0,0,1,1.77,1.015l.009.009A1.912,1.912,0,0,1,71.76,80.457Z" transform="translate(-53.076 -66.156)" fill="#31a8ff"/>
</svg>
