<svg id="Layer_1" data-name="Layer 1" xmlns="http://www.w3.org/2000/svg" viewBox="0 0 160 184.13"><title>logoText</title><rect x="48" y="64" width="112" height="32"/><rect x="48" width="112" height="32"/><polygon points="32 128 32 0 0 0 0 160 160 160 160 128 32 128"/><path d="M130.79,183.84h-3V168.15h3.85l6.88,11.78,0-11.78h3v15.69h-4l-6.8-11.65Z" transform="translate(0 0.06)"/><path d="M13.12,181.3v2.54H0V168.16H12.65v2.54H3.37v3.94H12v2.53H3.37v4.13Z" transform="translate(0 0.06)"/><path d="M27.74,181.3v2.54h-12V168.16H19.1V181.3Z" transform="translate(0 0.06)"/><path d="M43.28,179.32a4,4,0,0,1-1.76,3.53,9,9,0,0,1-5.14,1.21q-6.1,0-7.11-4.3l3.25-.53A2.81,2.81,0,0,0,33.81,181a5.24,5.24,0,0,0,2.66.56,5.28,5.28,0,0,0,2.65-.52,1.7,1.7,0,0,0,.88-1.57,1.55,1.55,0,0,0-.4-1.1,3,3,0,0,0-1.14-.72,7.23,7.23,0,0,0-1.07-.32c-.48-.12-1.06-.24-1.76-.39s-1.44-.34-1.9-.47a8,8,0,0,1-1.89-.78,3.66,3.66,0,0,1-1.34-1.34,4.1,4.1,0,0,1-.48-2.08,3.73,3.73,0,0,1,1.64-3.26,8.4,8.4,0,0,1,4.77-1.13,8.78,8.78,0,0,1,4.49.92,4.31,4.31,0,0,1,1.93,3l-3.26.44a2.48,2.48,0,0,0-1-1.53,4,4,0,0,0-2.21-.51,4.52,4.52,0,0,0-2.3.47,1.69,1.69,0,0,0-.44,2.4,2.52,2.52,0,0,0,1,.67,16.34,16.34,0,0,0,2.59.68c.77.16,1.43.32,2,.46a13.57,13.57,0,0,1,1.33.42,7.57,7.57,0,0,1,.9.44,4.79,4.79,0,0,1,.68.5,3.77,3.77,0,0,1,.89,1.3A4.64,4.64,0,0,1,43.28,179.32Z" transform="translate(0 0.06)"/><path d="M61.54,175.93a8.76,8.76,0,0,1-1,4.28,7.15,7.15,0,0,1-2.85,2.84,8.68,8.68,0,0,1-4.3,1,8.91,8.91,0,0,1-4.33-1,6.75,6.75,0,0,1-2.79-2.81,9.09,9.09,0,0,1-1-4.34,9,9,0,0,1,1-4.31A6.53,6.53,0,0,1,49,168.88a10.38,10.38,0,0,1,8.74,0,6.67,6.67,0,0,1,2.79,2.75A9,9,0,0,1,61.54,175.93Zm-3.44,0a5.94,5.94,0,0,0-1.23-4,4.94,4.94,0,0,0-7,0,5.92,5.92,0,0,0-1.23,4,7.07,7.07,0,0,0,.57,3,4.34,4.34,0,0,0,1.63,1.92,4.54,4.54,0,0,0,2.5.67A4.31,4.31,0,0,0,56.87,180,6.14,6.14,0,0,0,58.1,175.93Z" transform="translate(0 0.06)"/><path d="M67.21,183.84h-3V168.16h3.85L75,179.94l0-11.78h3v15.68H74l-6.8-11.65Z" transform="translate(0 0.06)"/><path d="M101.71,181.3v2.54h-12V168.16h3.37V181.3Z" transform="translate(0 0.06)"/><path d="M107.51,168.16v15.68h-3.37V168.16Z" transform="translate(0 0.06)"/><path d="M114.59,179.83l-1.43,4h-3.37l5.87-15.68h4l5.85,15.68h-3.34l-1.42-4Zm3.06-9.26c-.08.3-.19.66-.32,1.07l-.3.88-1.69,4.84H120l-1.74-4.94c-.11-.3-.21-.61-.3-.92S117.74,170.88,117.65,170.57Z" transform="translate(0 0.06)"/><path d="M152.46,181.49a8.69,8.69,0,0,0,2.55-.37,5.4,5.4,0,0,0,1.91-1V178H153v-2.43h7v5.77a8.69,8.69,0,0,1-3.33,2,12.85,12.85,0,0,1-4.3.72,9.39,9.39,0,0,1-4.43-.95,6.34,6.34,0,0,1-2.77-2.77,9.45,9.45,0,0,1-.95-4.41,7.91,7.91,0,0,1,2.13-5.94,8.38,8.38,0,0,1,6.1-2.07,9.35,9.35,0,0,1,4.64,1,5.68,5.68,0,0,1,2.57,3.07l-3.11.91a3.65,3.65,0,0,0-1.57-1.8,5,5,0,0,0-2.53-.61,4.51,4.51,0,0,0-3.6,1.4,5.85,5.85,0,0,0-1.24,4,6,6,0,0,0,1.28,4.11A4.48,4.48,0,0,0,152.46,181.49Z" transform="translate(0 0.06)"/></svg>